<?xml version="1.0" standalone="no"?>
<!DOCTYPE svg PUBLIC "-//W3C//DTD SVG 20010904//EN"
 "http://www.w3.org/TR/2001/REC-SVG-20010904/DTD/svg10.dtd">
<svg version="1.0" xmlns="http://www.w3.org/2000/svg"
 width="200.000000pt" height="200.000000pt" viewBox="0 0 200.000000 200.000000"
 preserveAspectRatio="xMidYMid meet">
<metadata>
Created by potrace 1.14, written by Peter Selinger 2001-2017
</metadata>
<g transform="translate(0.000000,200.000000) scale(0.100000,-0.100000)"
fill="#000000" stroke="none">
<path d="M941 1711 c-31 -23 -66 -41 -80 -41 -14 0 -53 14 -86 30 -63 31 -108
37 -148 19 -37 -17 -82 -102 -128 -244 -57 -179 -87 -244 -113 -249 -12 -2
-55 -9 -96 -15 -113 -15 -146 -27 -217 -80 -74 -54 -88 -162 -36 -271 35 -71
162 -198 273 -273 208 -138 531 -265 800 -314 136 -24 438 -24 539 0 293 71
424 316 281 526 -23 33 -57 72 -76 88 -20 15 -47 38 -62 49 -15 12 -50 33 -77
47 l-51 25 -43 199 c-70 319 -81 341 -219 406 -116 55 -219 97 -236 97 -8 0
-17 4 -20 9 -6 9 -46 19 -111 27 -35 5 -47 0 -94 -35z"/>
</g>
</svg>
